HIERARCHY
ROOT Hips
{
	OFFSET 0.000000 0.000000 0.000000
	CHANNELS 6 Xposition Yposition Zposition Zrotation Yrotation Xrotation 
	JOINT LHipJoint
	{
		OFFSET 0.000000 0.000000 0.000000
		CHANNELS 3 Zrotation Yrotation Xrotation
		JOINT LeftUpLeg
		{
			OFFSET 1.363060 -1.794630 0.839290
			CHANNELS 3 Zrotation Yrotation Xrotation
			JOINT LeftLeg
			{
				OFFSET 2.448110 -6.726130 0.000000
				CHANNELS 3 Zrotation Yrotation Xrotation
				JOINT LeftFoot
				{
					OFFSET 2.562200 -7.039590 0.000000
					CHANNELS 3 Zrotation Yrotation Xrotation
					JOINT LeftToeBase
					{
						OFFSET 0.157640 -0.433110 2.322550
						CHANNELS 3 Zrotation Yrotation Xrotation
						End Site
						{
							OFFSET 0.000000 0.000000 0.000000
						}
					}
				}
			}
		}
	}
	JOINT RHipJoint
	{
		OFFSET 0.000000 0.000000 0.000000
		CHANNELS 3 Zrotation Yrotation Xrotation
		JOINT RightUpLeg
		{
			OFFSET -1.305520 -1.794630 0.839290
			CHANNELS 3 Zrotation Yrotation Xrotation
			JOINT RightLeg
			{
				OFFSET -2.542530 -6.985550 0.000000
				CHANNELS 3 Zrotation Yrotation Xrotation
				JOINT RightFoot
				{
					OFFSET -2.568260 -7.056230 0.000000
					CHANNELS 3 Zrotation Yrotation Xrotation
					JOINT RightToeBase
					{
						OFFSET -0.164730 -0.452590 2.363150
						CHANNELS 3 Zrotation Yrotation Xrotation
						End Site
						{
							OFFSET 0.000000 0.000000 0.000000
						}
					}
				}
			}
		}
	}
	JOINT LowerBack
	{
		OFFSET 0.000000 0.000000 0.000000
		CHANNELS 3 Zrotation Yrotation Xrotation
		JOINT Spine
		{
			OFFSET 0.028270 2.035590 -0.193380
			CHANNELS 3 Zrotation Yrotation Xrotation
			JOINT Spine1
			{
				OFFSET 0.056720 2.048850 -0.042750
				CHANNELS 3 Zrotation Yrotation Xrotation
				JOINT Neck
				{
					OFFSET 0.000000 0.000000 0.000000
					CHANNELS 3 Zrotation Yrotation Xrotation
					JOINT Neck1
					{
						OFFSET -0.054170 1.746240 0.172020
						CHANNELS 3 Zrotation Yrotation Xrotation
						JOINT Head
						{
							OFFSET 0.104070 1.761360 -0.123970
							CHANNELS 3 Zrotation Yrotation Xrotation
							End Site
							{
								OFFSET 0.000000 0.000000 0.000000
							}
						}
					}
				}
				JOINT LeftShoulder
				{
					OFFSET 0.000000 0.000000 0.000000
					CHANNELS 3 Zrotation Yrotation Xrotation
					JOINT LeftArm
					{
						OFFSET 3.362410 1.200890 -0.311210
						CHANNELS 3 Zrotation Yrotation Xrotation
						JOINT LeftForeArm
						{
							OFFSET 4.983000 -0.000000 -0.000000
							CHANNELS 3 Zrotation Yrotation Xrotation
							JOINT LeftHand
							{
								OFFSET 3.483560 -0.000000 -0.000000
								CHANNELS 3 Zrotation Yrotation Xrotation
								JOINT LeftFingerBase
								{
									OFFSET 0.000000 0.000000 0.000000
									CHANNELS 3 Zrotation Yrotation Xrotation
									JOINT LeftHandIndex1
									{
										OFFSET 0.715260 -0.000000 -0.000000
										CHANNELS 3 Zrotation Yrotation Xrotation
										End Site
										{
											OFFSET 0.000000 0.000000 0.000000
										}
									}
								}
								JOINT LThumb
								{
									OFFSET 0.000000 0.000000 0.000000
									CHANNELS 3 Zrotation Yrotation Xrotation
									End Site
									{
										OFFSET 0.000000 0.000000 0.000000
									}
								}
							}
						}
					}
				}
				JOINT RightShoulder
				{
					OFFSET 0.000000 0.000000 0.000000
					CHANNELS 3 Zrotation Yrotation Xrotation
					JOINT RightArm
					{
						OFFSET -3.136600 1.374050 -0.404650
						CHANNELS 3 Zrotation Yrotation Xrotation
						JOINT RightForeArm
						{
							OFFSET -5.241900 -0.000000 -0.000000
							CHANNELS 3 Zrotation Yrotation Xrotation
							JOINT RightHand
							{
								OFFSET -3.444170 -0.000000 -0.000000
								CHANNELS 3 Zrotation Yrotation Xrotation
								JOINT RightFingerBase
								{
									OFFSET 0.000000 0.000000 0.000000
									CHANNELS 3 Zrotation Yrotation Xrotation
									JOINT RightHandIndex1
									{
										OFFSET -0.622530 -0.000000 -0.000000
										CHANNELS 3 Zrotation Yrotation Xrotation
										End Site
										{
											OFFSET 0.000000 0.000000 0.000000
										}
									}
								}
								JOINT RThumb
								{
									OFFSET 0.000000 0.000000 0.000000
									CHANNELS 3 Zrotation Yrotation Xrotation
									End Site
									{
										OFFSET 0.000000 0.000000 0.000000
									}
								}
							}
						}
					}
				}
			}
		}
	}
}
MOTION
Frames: 6
Frame Time: 0.008333
10.679764 18.592657 -0.763531 0.656468 -3.552837 -1.216145 -7.786772 1.956648 4.112064 -14.636269 -4.785607 -13.573562 -1.109140 7.527076 22.534733 -3.745106 12.582124 6.086168 0.015000 -0.791600 -2.175600 3.759458 -2.025727 1.753046 12.935787 8.601603 -16.679694 -11.522534 -17.455843 63.052207 5.280580 -19.401710 6.152849 -0.763700 5.580800 -15.572700 0.624654 -0.113326 4.282246 1.024264 -0.033566 -2.852515 0.754542 -0.105030 -0.749263 0.000062 8.005395 -6.933490 0.765706 10.330924 6.344918 -1.278000 5.152600 3.776200 -3.787039 -2.585024 0.216627 -84.703849 4.588854 23.298836 19.140249 -31.718383 -6.641604 -0.813824 -0.809133 -25.106647 22.443339 21.748964 9.256300 -7.125000 0.000000 0.000000 -5.587600 53.662500 -1.193000 7.348509 2.451203 -0.190612 72.765958 0.510975 33.381696 -14.507964 26.749312 -4.143709 0.658126 -0.609465 -11.206109 -21.961575 14.200025 -6.086700 7.125000 0.000000 0.000000 3.425700 -13.908500 2.506400 
10.683379 18.601269 -0.602256 0.311351 -3.027117 -1.284261 -7.776105 2.039673 4.243801 -14.317519 -5.017389 -13.082115 -1.091549 7.518244 22.581943 -3.735052 12.530126 5.988278 0.075700 -1.775200 -4.884800 3.766567 -1.935962 1.587340 13.294121 8.811748 -17.537995 -11.331662 -17.448632 62.684047 5.346810 -19.356750 4.937310 -0.789900 5.673500 -15.839800 0.937944 -0.196845 4.563296 1.103683 -0.102507 -2.855071 0.864954 -0.151344 -0.883455 -0.125316 7.878721 -6.911598 0.692859 10.184590 6.396651 -1.289000 5.075400 3.793000 -3.771173 -2.607461 0.228162 -84.444112 4.088150 24.618313 20.323059 -32.916472 -7.240785 -0.810637 -0.826031 -25.625782 22.432219 22.222530 9.441300 -7.125000 0.000000 0.000000 -5.748900 54.161600 -1.297700 7.381837 2.447482 -0.216209 72.826852 -0.300259 32.413377 -13.769848 25.918251 -3.855066 0.680652 -0.605458 -10.971299 -22.042398 14.108937 -6.080600 7.125000 0.000000 0.000000 3.347900 -13.997600 2.442900 
10.687525 18.595953 -0.441513 0.099826 -2.446275 -1.177174 -7.762663 2.079606 4.347092 -14.162075 -5.222245 -12.730461 -1.083951 7.503662 22.651321 -3.625830 12.222280 5.762328 0.115600 -2.191600 -6.035500 3.760969 -1.823582 1.415253 13.435052 8.957324 -18.625530 -11.072943 -17.433834 62.170427 5.322122 -18.991481 3.549728 -0.717400 5.412500 -15.089100 1.142992 -0.330020 4.645532 1.152303 -0.255650 -2.906399 0.916888 -0.237106 -1.075703 -0.205096 7.750338 -6.587371 0.650815 10.000498 6.218530 -1.317800 4.980800 3.631100 -3.768167 -2.640067 0.244865 -84.028242 3.793277 25.952094 21.599628 -34.174908 -7.910945 -0.808303 -0.838447 -26.344186 22.670043 22.395506 9.616300 -7.125000 0.000000 0.000000 -5.549600 54.385500 -1.282900 7.401385 2.426820 -0.248156 72.927642 -1.280282 31.848711 -13.106189 25.175665 -3.600959 0.698427 -0.614689 -11.443655 -22.035943 14.650698 -6.302800 7.125000 0.000000 0.000000 3.379400 -13.402700 2.508500 
10.693904 18.584578 -0.272052 0.315243 -1.855690 -1.073623 -7.765060 2.107131 4.447588 -14.481337 -5.477408 -12.246591 -1.102210 7.461315 22.724850 -3.378050 11.541606 5.097253 0.056900 -1.539600 -4.235000 3.730662 -1.721422 1.251619 13.044577 8.981855 -19.707747 -10.807371 -17.421168 61.440006 5.293892 -18.750795 3.097643 -0.775400 5.622400 -15.692700 0.808884 -0.508981 4.591095 1.174262 -0.505918 -2.933755 1.154248 -0.381607 -1.114187 -0.136946 7.705996 -6.356606 0.531277 9.929623 6.152849 -1.410100 4.944200 3.563300 -3.752339 -2.660428 0.264907 -83.760553 3.509881 26.872189 23.000342 -35.513188 -8.682448 -0.806904 -0.838583 -26.875038 22.935585 22.508623 9.776100 -7.125000 0.000000 0.000000 -5.303700 54.543700 -1.246200 7.422331 2.391314 -0.274701 72.975571 -2.213353 31.487800 -12.538640 24.534303 -3.389656 0.720460 -0.631572 -12.164134 -22.156396 15.513358 -6.696000 7.125000 0.000000 0.000000 3.350300 -12.438500 2.554500 
10.696987 18.561189 -0.100465 0.577045 -1.304155 -1.130834 -7.770869 2.175875 4.591483 -14.855749 -5.644685 -11.553906 -1.133636 7.379608 22.665091 -3.209217 11.077406 4.543720 0.056200 -1.529100 -4.206100 3.712430 -1.644205 1.086858 12.639974 9.104970 -20.536616 -10.518646 -17.386727 60.591406 5.237928 -18.481220 3.102089 -0.839900 5.845800 -16.337800 0.473360 -0.634275 4.585476 1.167972 -0.677103 -2.876096 1.320521 -0.493407 -0.919944 -0.286673 7.666574 -6.367539 0.634912 9.878170 6.058007 -1.351000 4.918100 3.489500 -3.753260 -2.664540 0.293762 -83.499923 2.876703 27.657394 24.356740 -36.731100 -9.435386 -0.805338 -0.807180 -27.075441 23.039529 21.877394 9.552100 -7.125000 0.000000 0.000000 -4.994700 53.868500 -1.091100 7.423680 2.348115 -0.281767 73.220926 -2.688162 30.246841 -11.761521 23.605466 -3.105855 0.731906 -0.619587 -11.660509 -21.940607 15.149226 -6.482700 7.125000 0.000000 0.000000 3.456000 -12.869500 2.604200 
10.703578 18.535887 0.089089 0.938850 -0.726993 -1.400517 -7.765008 2.298774 4.783389 -15.405876 -5.784377 -10.539857 -1.152430 7.298605 22.620269 -3.102581 10.767218 3.937513 0.095100 -1.989200 -5.475800 3.699132 -1.617431 0.968213 12.096739 9.161483 -20.971081 -10.117031 -17.298629 59.521590 5.072540 -17.791958 2.739018 -0.828100 5.805800 -16.222000 0.130113 -0.783752 4.620063 1.132246 -0.877643 -2.787319 1.387259 -0.621848 -0.684677 -0.503677 7.675113 -6.275704 0.839215 9.884965 5.971712 -1.234000 4.926100 3.375400 -3.774147 -2.664213 0.329790 -83.194886 2.267551 28.333975 25.607497 -37.794657 -10.129319 -0.797713 -0.745659 -27.283035 23.022859 20.288926 8.869800 -7.125000 0.000000 0.000000 -4.558500 52.135000 -0.802100 7.414203 2.297335 -0.283423 73.467214 -3.230741 29.015400 -10.993433 22.672916 -2.828471 0.748072 -0.568531 -10.652863 -21.609866 13.703728 -5.802500 7.125000 0.000000 0.000000 3.564600 -14.509500 2.562900 
